<?xml version="1.0" standalone="no"?>
<!DOCTYPE svg PUBLIC "-//W3C//DTD SVG 20010904//EN"
 "http://www.w3.org/TR/2001/REC-SVG-20010904/DTD/svg10.dtd">
<svg version="1.0" xmlns="http://www.w3.org/2000/svg"
 width="200.000000pt" height="200.000000pt" viewBox="0 0 200.000000 200.000000"
 preserveAspectRatio="xMidYMid meet">
<metadata>
Created by potrace 1.11, written by Peter Selinger 2001-2013
</metadata>
<g transform="translate(0.000000,200.000000) scale(0.100000,-0.100000)"
fill="#000000" stroke="none">
<path d="M604 997 c1 -226 3 -262 16 -259 14 3 186 107 297 178 28 19 56 34
62 34 6 0 86 -47 179 -105 93 -57 176 -107 185 -110 14 -6 16 19 15 260 l0
266 -22 -14 c-11 -7 -96 -60 -188 -116 l-167 -102 -68 41 c-37 22 -108 66
-158 97 -49 30 -104 64 -121 74 l-30 19 0 -263z"/>
</g>
</svg>
